<svg width="14" height="14" viewBox="0 0 14 14" fill="none" xmlns="http://www.w3.org/2000/svg">
<path d="M4.947 4.13901C5.04243 4.07831 5.15358 4.047 5.26666 4.04895C5.37973 4.05091 5.48974 4.08605 5.583 4.15001L9.367 6.46201C9.45927 6.51837 9.53552 6.59749 9.58842 6.69179C9.64132 6.78608 9.6691 6.89239 9.6691 7.00051C9.6691 7.10863 9.64132 7.21494 9.58842 7.30923C9.53552 7.40353 9.45927 7.48265 9.367 7.53901L5.583 9.85201C5.48727 9.90989 5.3779 9.94133 5.26604 9.9431C5.15419 9.94488 5.04387 9.91694 4.94635 9.86213C4.84883 9.80732 4.7676 9.7276 4.71097 9.63113C4.65434 9.53466 4.62433 9.42488 4.624 9.31301V4.66401C4.62701 4.55572 4.65844 4.45012 4.71513 4.3578C4.77182 4.26548 4.85178 4.19068 4.947 4.13901ZM13.454 7.00101C13.4538 8.3314 13.0591 9.63186 12.3199 10.738C11.5806 11.8441 10.53 12.7061 9.30085 13.2151C8.0717 13.7242 6.7192 13.8573 5.41439 13.5977C4.10957 13.3381 2.91102 12.6974 1.9703 11.7567C1.02957 10.816 0.388904 9.61744 0.129309 8.31263C-0.130285 7.00781 0.00284731 5.65532 0.511874 4.42616C1.0209 3.197 1.88296 2.14638 2.98906 1.40713C4.09515 0.667883 5.39561 0.273208 6.726 0.27301C7.60949 0.272879 8.48435 0.446781 9.30062 0.784786C10.1169 1.12279 10.8586 1.61828 11.4834 2.24295C12.1081 2.86762 12.6037 3.60925 12.9418 4.42547C13.28 5.24169 13.454 6.11752 13.454 7.00101ZM6.726 1.53401C5.64493 1.53401 4.58813 1.85459 3.68926 2.4552C2.79038 3.05581 2.08979 3.90948 1.67608 4.90826C1.26237 5.90704 1.15412 7.00607 1.36503 8.06637C1.57594 9.12667 2.09652 10.1006 2.86096 10.8651C3.62539 11.6295 4.59934 12.1501 5.65964 12.361C6.71994 12.5719 7.81897 12.4636 8.81775 12.0499C9.81653 11.6362 10.6702 10.9356 11.2708 10.0368C11.8714 9.13788 12.192 8.08108 12.192 7.00001C12.1921 6.28217 12.0508 5.57133 11.7762 4.90811C11.5016 4.24488 11.0989 3.64226 10.5913 3.13467C10.0838 2.62708 9.48113 2.22446 8.81791 1.94982C8.15468 1.67517 7.44385 1.53388 6.726 1.53401Z" fill="#0557B7"/>
</svg>
